<svg width="430" height="84" viewBox="0 0 430 84" fill="none" xmlns="http://www.w3.org/2000/svg">
<rect width="430" height="84" fill="black"/>
<path d="M79.8359 58H75.0312V24.3906H77.4219C78.9844 24.3906 80.6406 24.5938 82.3906 25C84.1562 25.4062 85.9531 25.9922 87.7812 26.7578C89.6094 27.5234 91.4297 28.4531 93.2422 29.5469C95.0703 30.625 96.8359 31.8516 98.5391 33.2266C100.242 34.6016 101.844 36.1016 103.344 37.7266C104.844 39.3359 106.188 41.0547 107.375 42.8828V24.3906H112.18V58H107.375C107.375 55.5312 106.945 53.1562 106.086 50.875C105.227 48.5781 104.078 46.4141 102.641 44.3828C101.203 42.3516 99.5469 40.4844 97.6719 38.7812C95.7969 37.0625 93.8359 35.5547 91.7891 34.2578C89.7578 32.9609 87.7109 31.8984 85.6484 31.0703C83.5859 30.2266 81.6484 29.6641 79.8359 29.3828V58ZM159.336 58H152.867L135.711 40.7266L125.07 48.3906V58H120.266V24.3906H125.07V43.1172L151.414 24.3906H158.422L139.367 38.0781L159.336 58ZM220.484 41.1953C220.484 43.5234 220.109 45.7109 219.359 47.7578C218.625 49.8047 217.578 51.5859 216.219 53.1016C214.859 54.6172 213.227 55.8125 211.32 56.6875C209.43 57.5625 207.328 58 205.016 58H188.07V53.1953H205.016C206.672 53.1953 208.156 52.8828 209.469 52.2578C210.797 51.6328 211.914 50.7812 212.82 49.7031C213.742 48.6094 214.445 47.3359 214.93 45.8828C215.43 44.4141 215.68 42.8516 215.68 41.1953C215.68 39.5391 215.43 37.9844 214.93 36.5312C214.445 35.0781 213.742 33.8125 212.82 32.7344C211.914 31.6406 210.797 30.7812 209.469 30.1562C208.156 29.5156 206.672 29.1953 205.016 29.1953H185.68V58H180.875V24.3906H205.016C207.328 24.3906 209.43 24.8359 211.32 25.7266C213.227 26.6016 214.859 27.8047 216.219 29.3359C217.578 30.8516 218.625 32.6328 219.359 34.6797C220.109 36.7109 220.484 38.8828 220.484 41.1953ZM253.602 58H226.039V31.5156H253.602V36.3438H230.891V53.1484H253.602V58ZM250.531 47.0547H233.164V42.2031H250.531V47.0547ZM287.891 50.2188C287.891 51.2969 287.688 52.3125 287.281 53.2656C286.875 54.2031 286.32 55.0234 285.617 55.7266C284.93 56.4297 284.109 56.9844 283.156 57.3906C282.219 57.7969 281.211 58 280.133 58H257.703V53.1953H280.133C280.555 53.1953 280.945 53.125 281.305 52.9844C281.68 52.8281 282 52.6172 282.266 52.3516C282.547 52.0703 282.766 51.75 282.922 51.3906C283.078 51.0312 283.156 50.6406 283.156 50.2188C283.156 49.7969 283.078 49.4062 282.922 49.0469C282.766 48.6719 282.547 48.3516 282.266 48.0859C282 47.8047 281.68 47.5859 281.305 47.4297C280.945 47.2734 280.555 47.1953 280.133 47.1953H265.438C264.375 47.1953 263.375 46.9922 262.438 46.5859C261.5 46.1797 260.68 45.625 259.977 44.9219C259.273 44.2031 258.719 43.3672 258.312 42.4141C257.906 41.4609 257.703 40.4453 257.703 39.3672C257.703 38.3203 257.906 37.3281 258.312 36.3906C258.719 35.4375 259.273 34.6094 259.977 33.9062C260.68 33.2031 261.5 32.6484 262.438 32.2422C263.375 31.8203 264.375 31.6094 265.438 31.6094H286.133V36.3438H265.438C265.031 36.3438 264.641 36.4297 264.266 36.6016C263.906 36.7578 263.594 36.9766 263.328 37.2578C263.062 37.5234 262.852 37.8438 262.695 38.2188C262.539 38.5781 262.461 38.9609 262.461 39.3672C262.461 39.7891 262.539 40.1875 262.695 40.5625C262.852 40.9219 263.062 41.2422 263.328 41.5234C263.594 41.7891 263.906 42 264.266 42.1562C264.641 42.3125 265.031 42.3906 265.438 42.3906H280.133C281.211 42.3906 282.219 42.6016 283.156 43.0234C284.109 43.4297 284.93 43.9922 285.617 44.7109C286.32 45.4141 286.875 46.2422 287.281 47.1953C287.688 48.1484 287.891 49.1562 287.891 50.2188ZM297.641 58H292.883V31.6094H297.641V58ZM332.352 58H315.312C313.453 58 311.766 57.6562 310.25 56.9688C308.734 56.2812 307.438 55.3438 306.359 54.1562C305.281 52.9531 304.445 51.5469 303.852 49.9375C303.273 48.3125 302.984 46.5703 302.984 44.7109C302.984 42.8672 303.273 41.1484 303.852 39.5547C304.445 37.9453 305.281 36.5469 306.359 35.3594C307.438 34.1719 308.734 33.2344 310.25 32.5469C311.766 31.8594 313.453 31.5156 315.312 31.5156H332.352V36.3438H315.312C314.156 36.3438 313.109 36.5625 312.172 37C311.25 37.4375 310.469 38.0312 309.828 38.7812C309.188 39.5312 308.695 40.4141 308.352 41.4297C308.008 42.4453 307.836 43.5391 307.836 44.7109C307.836 45.8984 308.008 47.0078 308.352 48.0391C308.695 49.0547 309.188 49.9453 309.828 50.7109C310.469 51.4609 311.25 52.0547 312.172 52.4922C313.109 52.9297 314.156 53.1484 315.312 53.1484H327.5V47.0547H313.742V42.2031H332.352V58ZM362.703 58C362.703 56.25 362.406 54.5547 361.812 52.9141C361.234 51.2578 360.445 49.7031 359.445 48.25C358.461 46.7812 357.312 45.4141 356 44.1484C354.703 42.8828 353.336 41.7578 351.898 40.7734C350.461 39.7734 348.992 38.9375 347.492 38.2656C346.008 37.5781 344.594 37.0703 343.25 36.7422V58H338.445V31.6094H341.047V31.6562C342.766 31.75 344.594 32.1328 346.531 32.8047C348.484 33.4609 350.422 34.3594 352.344 35.5C354.281 36.625 356.141 37.9688 357.922 39.5312C359.719 41.0781 361.312 42.7891 362.703 44.6641V31.6094H367.484V58H362.703ZM403.344 50.2188C403.344 51.2969 403.141 52.3125 402.734 53.2656C402.328 54.2031 401.773 55.0234 401.07 55.7266C400.383 56.4297 399.562 56.9844 398.609 57.3906C397.672 57.7969 396.664 58 395.586 58H373.156V53.1953H395.586C396.008 53.1953 396.398 53.125 396.758 52.9844C397.133 52.8281 397.453 52.6172 397.719 52.3516C398 52.0703 398.219 51.75 398.375 51.3906C398.531 51.0312 398.609 50.6406 398.609 50.2188C398.609 49.7969 398.531 49.4062 398.375 49.0469C398.219 48.6719 398 48.3516 397.719 48.0859C397.453 47.8047 397.133 47.5859 396.758 47.4297C396.398 47.2734 396.008 47.1953 395.586 47.1953H380.891C379.828 47.1953 378.828 46.9922 377.891 46.5859C376.953 46.1797 376.133 45.625 375.43 44.9219C374.727 44.2031 374.172 43.3672 373.766 42.4141C373.359 41.4609 373.156 40.4453 373.156 39.3672C373.156 38.3203 373.359 37.3281 373.766 36.3906C374.172 35.4375 374.727 34.6094 375.43 33.9062C376.133 33.2031 376.953 32.6484 377.891 32.2422C378.828 31.8203 379.828 31.6094 380.891 31.6094H401.586V36.3438H380.891C380.484 36.3438 380.094 36.4297 379.719 36.6016C379.359 36.7578 379.047 36.9766 378.781 37.2578C378.516 37.5234 378.305 37.8438 378.148 38.2188C377.992 38.5781 377.914 38.9609 377.914 39.3672C377.914 39.7891 377.992 40.1875 378.148 40.5625C378.305 40.9219 378.516 41.2422 378.781 41.5234C379.047 41.7891 379.359 42 379.719 42.1562C380.094 42.3125 380.484 42.3906 380.891 42.3906H395.586C396.664 42.3906 397.672 42.6016 398.609 43.0234C399.562 43.4297 400.383 43.9922 401.07 44.7109C401.773 45.4141 402.328 46.2422 402.734 47.1953C403.141 48.1484 403.344 49.1562 403.344 50.2188Z" fill="white"/>
<path d="M49 16L70.6506 58.75H27.3494L49 16Z" fill="white"/>
</svg>
