<svg width="454" height="110" viewBox="0 0 454 110" fill="none" xmlns="http://www.w3.org/2000/svg">
<rect width="454" height="110" fill="white"/>
<rect width="430" height="84" transform="translate(12 13)" fill="black"/>
<path d="M118.02 75.3C116.433 73.1533 114.59 70.75 112.49 68.09C110.437 65.43 108.313 62.7233 106.12 59.97C103.927 57.17 101.803 54.4633 99.75 51.85C97.7433 49.2367 95.9467 46.9267 94.36 44.92V74.25C94.36 74.7167 94.1967 75.1367 93.87 75.51C93.5433 75.8367 93.1233 76 92.61 76C92.1433 76 91.7233 75.8367 91.35 75.51C91.0233 75.1367 90.86 74.7167 90.86 74.25V40.3C90.86 39.7867 91.0233 39.3667 91.35 39.04C91.7233 38.7133 92.12 38.55 92.54 38.55C93.4733 38.55 94.1033 38.7833 94.43 39.25C95.5967 40.79 97.1133 42.7733 98.98 45.2C100.847 47.58 102.877 50.1933 105.07 53.04C107.31 55.84 109.55 58.6867 111.79 61.58C114.077 64.4267 116.177 67.11 118.09 69.63V40.3C118.09 39.7867 118.253 39.3667 118.58 39.04C118.953 38.7133 119.373 38.55 119.84 38.55C120.353 38.55 120.773 38.7133 121.1 39.04C121.427 39.3667 121.59 39.7867 121.59 40.3V74.25C121.59 74.7167 121.427 75.1367 121.1 75.51C120.773 75.8367 120.377 76 119.91 76C118.977 76 118.347 75.7667 118.02 75.3ZM161.964 76C161.45 76 161.007 75.79 160.634 75.37C159.747 74.3433 158.65 73.0833 157.344 71.59C156.084 70.05 154.73 68.4167 153.284 66.69C151.884 64.9633 150.484 63.2833 149.084 61.65C147.73 59.97 146.517 58.4767 145.444 57.17C144.044 58.4767 142.76 59.6667 141.594 60.74C140.427 61.7667 139.494 62.6067 138.794 63.26V74.25C138.794 74.7167 138.63 75.1367 138.304 75.51C137.977 75.8367 137.557 76 137.044 76C136.577 76 136.157 75.8367 135.784 75.51C135.457 75.1367 135.294 74.7167 135.294 74.25V40.3C135.294 39.7867 135.457 39.3667 135.784 39.04C136.157 38.7133 136.577 38.55 137.044 38.55C137.557 38.55 137.977 38.7133 138.304 39.04C138.63 39.3667 138.794 39.7867 138.794 40.3V58.57C140.1 57.3567 141.617 55.9567 143.344 54.37C145.117 52.7367 146.96 51.0333 148.874 49.26C150.787 47.44 152.654 45.6667 154.474 43.94C156.294 42.1667 157.904 40.5567 159.304 39.11C159.677 38.7367 160.097 38.55 160.564 38.55C161.03 38.55 161.427 38.7367 161.754 39.11C162.127 39.4367 162.314 39.8333 162.314 40.3C162.314 40.6733 162.15 41.07 161.824 41.49C160.004 43.4033 157.834 45.5733 155.314 48C152.84 50.38 150.414 52.6667 148.034 54.86C149.107 56.12 150.32 57.59 151.674 59.27C153.074 60.95 154.497 62.6533 155.944 64.38C157.39 66.1067 158.744 67.74 160.004 69.28C161.31 70.82 162.407 72.1033 163.294 73.13C163.574 73.41 163.714 73.7833 163.714 74.25C163.714 74.67 163.55 75.0667 163.224 75.44C162.897 75.8133 162.477 76 161.964 76ZM196.174 76C195.708 76 195.288 75.8367 194.914 75.51C194.588 75.1367 194.424 74.7167 194.424 74.25V40.3C194.424 39.7867 194.588 39.3667 194.914 39.04C195.288 38.7133 195.708 38.55 196.174 38.55H208.494C211.574 38.55 214.444 39.3433 217.104 40.93C219.811 42.5167 221.981 44.71 223.614 47.51C225.294 50.31 226.134 53.5533 226.134 57.24C226.134 60.74 225.388 63.9133 223.894 66.76C222.448 69.56 220.394 71.8 217.734 73.48C215.121 75.16 212.041 76 208.494 76H196.174ZM197.924 42.05V72.5H208.494C211.388 72.5 213.884 71.8233 215.984 70.47C218.131 69.07 219.764 67.2267 220.884 64.94C222.051 62.6067 222.634 60.04 222.634 57.24C222.634 54.3 221.981 51.6867 220.674 49.4C219.368 47.1133 217.641 45.3167 215.494 44.01C213.348 42.7033 211.014 42.05 208.494 42.05H197.924ZM248.766 76C244.286 76 240.669 74.8333 237.916 72.5C235.209 70.1667 233.856 66.8767 233.856 62.63C233.856 59.7833 234.462 57.31 235.676 55.21C236.889 53.11 238.499 51.4767 240.506 50.31C242.559 49.1433 244.822 48.56 247.296 48.56C249.769 48.56 251.846 49.05 253.526 50.03C255.206 51.01 256.466 52.2233 257.306 53.67C258.192 55.1167 258.636 56.54 258.636 57.94C258.636 59.62 258.099 61.0667 257.026 62.28C255.999 63.4933 254.039 64.1 251.146 64.1H237.426C237.799 66.9 239.012 69 241.066 70.4C243.166 71.8 245.732 72.5 248.766 72.5C249.932 72.5 250.982 72.4067 251.916 72.22C252.896 72.0333 253.642 71.8467 254.156 71.66C254.669 71.4733 254.996 71.3567 255.136 71.31C255.322 71.2633 255.462 71.24 255.556 71.24C256.022 71.24 256.419 71.4267 256.746 71.8C257.119 72.1267 257.306 72.5233 257.306 72.99C257.306 73.7833 256.932 74.32 256.186 74.6C255.206 74.9733 254.062 75.3 252.756 75.58C251.449 75.86 250.119 76 248.766 76ZM247.296 52.06C244.822 52.06 242.676 52.8533 240.856 54.44C239.036 55.98 237.916 58.0333 237.496 60.6H251.216C253.876 60.6 255.206 59.7133 255.206 57.94C255.206 56.4933 254.482 55.1633 253.036 53.95C251.589 52.69 249.676 52.06 247.296 52.06ZM283.989 52.62C283.523 52.48 282.706 52.3167 281.539 52.13C280.419 51.9433 279.183 51.85 277.829 51.85C275.543 51.85 273.769 52.2467 272.509 53.04C271.249 53.8333 270.619 54.8133 270.619 55.98C270.619 57.0067 271.133 57.8467 272.159 58.5C273.233 59.1067 274.983 59.5267 277.409 59.76L280.209 60.04C282.589 60.2733 284.456 60.81 285.809 61.65C287.163 62.49 288.119 63.4933 288.679 64.66C289.239 65.78 289.519 66.97 289.519 68.23C289.519 69.49 289.193 70.75 288.539 72.01C287.886 73.2233 286.743 74.25 285.109 75.09C283.523 75.8833 281.236 76.28 278.249 76.28C276.523 76.28 274.749 76.1167 272.929 75.79C271.109 75.4167 269.383 74.88 267.749 74.18C267.049 73.8533 266.699 73.2933 266.699 72.5C266.699 72.08 266.886 71.7067 267.259 71.38C267.633 71.0067 268.053 70.82 268.519 70.82C268.613 70.82 268.776 70.8667 269.009 70.96C269.243 71.0533 269.663 71.2167 270.269 71.45C271.156 71.7767 272.323 72.08 273.769 72.36C275.216 72.64 276.709 72.78 278.249 72.78C280.769 72.78 282.683 72.36 283.989 71.52C285.343 70.6333 286.019 69.5367 286.019 68.23C286.019 67.0167 285.553 65.99 284.619 65.15C283.686 64.2633 282.123 63.7267 279.929 63.54L277.129 63.26C274.376 62.98 272.276 62.4667 270.829 61.72C269.383 60.9267 268.403 60.0167 267.889 58.99C267.376 57.9633 267.119 56.9367 267.119 55.91C267.119 54.7433 267.423 53.6 268.029 52.48C268.683 51.3133 269.779 50.3333 271.319 49.54C272.906 48.7467 275.076 48.35 277.829 48.35C279.416 48.35 280.886 48.4667 282.239 48.7C283.639 48.8867 284.876 49.1433 285.949 49.47C286.323 49.5167 286.626 49.7267 286.859 50.1C287.093 50.4267 287.209 50.7767 287.209 51.15C287.209 51.6633 287.023 52.0833 286.649 52.41C286.323 52.7367 285.926 52.9 285.459 52.9C285.179 52.9 284.689 52.8067 283.989 52.62ZM301.503 34.21C302.296 34.21 302.973 34.5367 303.533 35.19C304.093 35.7967 304.373 36.6367 304.373 37.71C304.373 38.7833 304.093 39.6 303.533 40.16C302.973 40.72 302.32 41 301.573 41C300.733 41 300.01 40.72 299.403 40.16C298.843 39.5533 298.563 38.7367 298.563 37.71C298.563 36.6367 298.843 35.7967 299.403 35.19C299.963 34.5367 300.663 34.21 301.503 34.21ZM299.823 50.31C299.823 49.7967 299.986 49.3767 300.313 49.05C300.686 48.7233 301.106 48.56 301.573 48.56C302.086 48.56 302.506 48.7233 302.833 49.05C303.16 49.3767 303.323 49.7967 303.323 50.31V74.25C303.323 74.7167 303.16 75.1367 302.833 75.51C302.506 75.8367 302.086 76 301.573 76C301.106 76 300.686 75.8367 300.313 75.51C299.986 75.1367 299.823 74.7167 299.823 74.25V50.31ZM321.063 88.67C320.596 88.67 320.176 88.4833 319.803 88.11C319.476 87.7833 319.313 87.3867 319.313 86.92C319.313 86.4533 319.476 86.0333 319.803 85.66C320.176 85.3333 320.596 85.17 321.063 85.17C326.056 85.17 329.696 83.8633 331.983 81.25C334.316 78.6833 335.483 75.2767 335.483 71.03V70.75C333.943 72.1967 332.263 73.2933 330.443 74.04C328.623 74.7867 326.756 75.16 324.843 75.16C322.929 75.16 321.063 74.74 319.243 73.9C317.469 73.06 315.999 71.73 314.833 69.91C313.713 68.09 313.153 65.7567 313.153 62.91C313.153 59.97 313.829 57.4267 315.183 55.28C316.536 53.1333 318.286 51.4767 320.433 50.31C322.626 49.1433 324.889 48.56 327.223 48.56C328.856 48.56 330.303 48.7 331.563 48.98C332.869 49.26 334.176 49.6567 335.483 50.17C335.576 49.6567 335.786 49.26 336.113 48.98C336.439 48.7 336.813 48.56 337.233 48.56C337.746 48.56 338.166 48.7233 338.493 49.05C338.819 49.3767 338.983 49.7967 338.983 50.31V71.03C338.983 76.35 337.559 80.62 334.713 83.84C331.866 87.06 327.316 88.67 321.063 88.67ZM324.843 71.66C326.849 71.66 328.786 71.1467 330.653 70.12C332.519 69.0467 334.129 67.5067 335.483 65.5V54.02C334.036 53.3667 332.706 52.8767 331.493 52.55C330.279 52.2233 328.856 52.06 327.223 52.06C325.449 52.06 323.746 52.5033 322.113 53.39C320.479 54.2767 319.149 55.5367 318.123 57.17C317.143 58.8033 316.653 60.7167 316.653 62.91C316.653 64.9167 317.049 66.5733 317.843 67.88C318.636 69.1867 319.663 70.1433 320.923 70.75C322.183 71.3567 323.489 71.66 324.843 71.66ZM372.718 76C372.251 76 371.831 75.8367 371.458 75.51C371.131 75.1367 370.968 74.7167 370.968 74.25V60.25C370.968 57.3567 370.408 55.28 369.288 54.02C368.214 52.7133 366.744 52.06 364.878 52.06C362.918 52.06 361.051 52.5967 359.278 53.67C357.504 54.6967 355.871 55.9567 354.378 57.45V74.25C354.378 74.7167 354.214 75.1367 353.888 75.51C353.561 75.8367 353.141 76 352.628 76C352.161 76 351.741 75.8367 351.368 75.51C351.041 75.1367 350.878 74.7167 350.878 74.25V50.31C350.878 49.7967 351.041 49.3767 351.368 49.05C351.741 48.7233 352.161 48.56 352.628 48.56C353.141 48.56 353.561 48.7233 353.888 49.05C354.214 49.3767 354.378 49.7967 354.378 50.31V52.83C355.964 51.57 357.621 50.5433 359.348 49.75C361.074 48.9567 362.918 48.56 364.878 48.56C366.651 48.56 368.261 48.91 369.708 49.61C371.154 50.31 372.298 51.5233 373.138 53.25C374.024 54.93 374.468 57.2633 374.468 60.25V74.25C374.468 74.7167 374.304 75.1367 373.978 75.51C373.651 75.8367 373.231 76 372.718 76ZM401.773 52.62C401.306 52.48 400.489 52.3167 399.323 52.13C398.203 51.9433 396.966 51.85 395.613 51.85C393.326 51.85 391.553 52.2467 390.293 53.04C389.033 53.8333 388.403 54.8133 388.403 55.98C388.403 57.0067 388.916 57.8467 389.943 58.5C391.016 59.1067 392.766 59.5267 395.193 59.76L397.993 60.04C400.373 60.2733 402.239 60.81 403.593 61.65C404.946 62.49 405.903 63.4933 406.463 64.66C407.023 65.78 407.303 66.97 407.303 68.23C407.303 69.49 406.976 70.75 406.323 72.01C405.669 73.2233 404.526 74.25 402.893 75.09C401.306 75.8833 399.019 76.28 396.033 76.28C394.306 76.28 392.533 76.1167 390.713 75.79C388.893 75.4167 387.166 74.88 385.533 74.18C384.833 73.8533 384.483 73.2933 384.483 72.5C384.483 72.08 384.669 71.7067 385.043 71.38C385.416 71.0067 385.836 70.82 386.303 70.82C386.396 70.82 386.559 70.8667 386.793 70.96C387.026 71.0533 387.446 71.2167 388.053 71.45C388.939 71.7767 390.106 72.08 391.553 72.36C392.999 72.64 394.493 72.78 396.033 72.78C398.553 72.78 400.466 72.36 401.773 71.52C403.126 70.6333 403.803 69.5367 403.803 68.23C403.803 67.0167 403.336 65.99 402.403 65.15C401.469 64.2633 399.906 63.7267 397.713 63.54L394.913 63.26C392.159 62.98 390.059 62.4667 388.613 61.72C387.166 60.9267 386.186 60.0167 385.673 58.99C385.159 57.9633 384.903 56.9367 384.903 55.91C384.903 54.7433 385.206 53.6 385.813 52.48C386.466 51.3133 387.563 50.3333 389.103 49.54C390.689 48.7467 392.859 48.35 395.613 48.35C397.199 48.35 398.669 48.4667 400.023 48.7C401.423 48.8867 402.659 49.1433 403.733 49.47C404.106 49.5167 404.409 49.7267 404.643 50.1C404.876 50.4267 404.993 50.7767 404.993 51.15C404.993 51.6633 404.806 52.0833 404.433 52.41C404.106 52.7367 403.709 52.9 403.243 52.9C402.963 52.9 402.473 52.8067 401.773 52.62Z" fill="white"/>
<path d="M62 33L83.6506 75.75H40.3494L62 33Z" fill="white"/>
</svg>
