<svg width="478" height="132" viewBox="0 0 478 132" fill="none" xmlns="http://www.w3.org/2000/svg">
<g filter="url(#filter0_d_9_14)">
<rect width="430" height="84" transform="translate(24 24)" fill="black"/>
<path d="M130.02 86.3C128.433 84.1533 126.59 81.75 124.49 79.09C122.437 76.43 120.313 73.7233 118.12 70.97C115.927 68.17 113.803 65.4633 111.75 62.85C109.743 60.2367 107.947 57.9267 106.36 55.92V85.25C106.36 85.7167 106.197 86.1367 105.87 86.51C105.543 86.8367 105.123 87 104.61 87C104.143 87 103.723 86.8367 103.35 86.51C103.023 86.1367 102.86 85.7167 102.86 85.25V51.3C102.86 50.7867 103.023 50.3667 103.35 50.04C103.723 49.7133 104.12 49.55 104.54 49.55C105.473 49.55 106.103 49.7833 106.43 50.25C107.597 51.79 109.113 53.7733 110.98 56.2C112.847 58.58 114.877 61.1933 117.07 64.04C119.31 66.84 121.55 69.6867 123.79 72.58C126.077 75.4267 128.177 78.11 130.09 80.63V51.3C130.09 50.7867 130.253 50.3667 130.58 50.04C130.953 49.7133 131.373 49.55 131.84 49.55C132.353 49.55 132.773 49.7133 133.1 50.04C133.427 50.3667 133.59 50.7867 133.59 51.3V85.25C133.59 85.7167 133.427 86.1367 133.1 86.51C132.773 86.8367 132.377 87 131.91 87C130.977 87 130.347 86.7667 130.02 86.3ZM173.964 87C173.45 87 173.007 86.79 172.634 86.37C171.747 85.3433 170.65 84.0833 169.344 82.59C168.084 81.05 166.73 79.4167 165.284 77.69C163.884 75.9633 162.484 74.2833 161.084 72.65C159.73 70.97 158.517 69.4767 157.444 68.17C156.044 69.4767 154.76 70.6667 153.594 71.74C152.427 72.7667 151.494 73.6067 150.794 74.26V85.25C150.794 85.7167 150.63 86.1367 150.304 86.51C149.977 86.8367 149.557 87 149.044 87C148.577 87 148.157 86.8367 147.784 86.51C147.457 86.1367 147.294 85.7167 147.294 85.25V51.3C147.294 50.7867 147.457 50.3667 147.784 50.04C148.157 49.7133 148.577 49.55 149.044 49.55C149.557 49.55 149.977 49.7133 150.304 50.04C150.63 50.3667 150.794 50.7867 150.794 51.3V69.57C152.1 68.3567 153.617 66.9567 155.344 65.37C157.117 63.7367 158.96 62.0333 160.874 60.26C162.787 58.44 164.654 56.6667 166.474 54.94C168.294 53.1667 169.904 51.5567 171.304 50.11C171.677 49.7367 172.097 49.55 172.564 49.55C173.03 49.55 173.427 49.7367 173.754 50.11C174.127 50.4367 174.314 50.8333 174.314 51.3C174.314 51.6733 174.15 52.07 173.824 52.49C172.004 54.4033 169.834 56.5733 167.314 59C164.84 61.38 162.414 63.6667 160.034 65.86C161.107 67.12 162.32 68.59 163.674 70.27C165.074 71.95 166.497 73.6533 167.944 75.38C169.39 77.1067 170.744 78.74 172.004 80.28C173.31 81.82 174.407 83.1033 175.294 84.13C175.574 84.41 175.714 84.7833 175.714 85.25C175.714 85.67 175.55 86.0667 175.224 86.44C174.897 86.8133 174.477 87 173.964 87ZM208.174 87C207.708 87 207.288 86.8367 206.914 86.51C206.588 86.1367 206.424 85.7167 206.424 85.25V51.3C206.424 50.7867 206.588 50.3667 206.914 50.04C207.288 49.7133 207.708 49.55 208.174 49.55H220.494C223.574 49.55 226.444 50.3433 229.104 51.93C231.811 53.5167 233.981 55.71 235.614 58.51C237.294 61.31 238.134 64.5533 238.134 68.24C238.134 71.74 237.388 74.9133 235.894 77.76C234.448 80.56 232.394 82.8 229.734 84.48C227.121 86.16 224.041 87 220.494 87H208.174ZM209.924 53.05V83.5H220.494C223.388 83.5 225.884 82.8233 227.984 81.47C230.131 80.07 231.764 78.2267 232.884 75.94C234.051 73.6067 234.634 71.04 234.634 68.24C234.634 65.3 233.981 62.6867 232.674 60.4C231.368 58.1133 229.641 56.3167 227.494 55.01C225.348 53.7033 223.014 53.05 220.494 53.05H209.924ZM260.766 87C256.286 87 252.669 85.8333 249.916 83.5C247.209 81.1667 245.856 77.8767 245.856 73.63C245.856 70.7833 246.462 68.31 247.676 66.21C248.889 64.11 250.499 62.4767 252.506 61.31C254.559 60.1433 256.822 59.56 259.296 59.56C261.769 59.56 263.846 60.05 265.526 61.03C267.206 62.01 268.466 63.2233 269.306 64.67C270.192 66.1167 270.636 67.54 270.636 68.94C270.636 70.62 270.099 72.0667 269.026 73.28C267.999 74.4933 266.039 75.1 263.146 75.1H249.426C249.799 77.9 251.012 80 253.066 81.4C255.166 82.8 257.732 83.5 260.766 83.5C261.932 83.5 262.982 83.4067 263.916 83.22C264.896 83.0333 265.642 82.8467 266.156 82.66C266.669 82.4733 266.996 82.3567 267.136 82.31C267.322 82.2633 267.462 82.24 267.556 82.24C268.022 82.24 268.419 82.4267 268.746 82.8C269.119 83.1267 269.306 83.5233 269.306 83.99C269.306 84.7833 268.932 85.32 268.186 85.6C267.206 85.9733 266.062 86.3 264.756 86.58C263.449 86.86 262.119 87 260.766 87ZM259.296 63.06C256.822 63.06 254.676 63.8533 252.856 65.44C251.036 66.98 249.916 69.0333 249.496 71.6H263.216C265.876 71.6 267.206 70.7133 267.206 68.94C267.206 67.4933 266.482 66.1633 265.036 64.95C263.589 63.69 261.676 63.06 259.296 63.06ZM295.989 63.62C295.523 63.48 294.706 63.3167 293.539 63.13C292.419 62.9433 291.183 62.85 289.829 62.85C287.543 62.85 285.769 63.2467 284.509 64.04C283.249 64.8333 282.619 65.8133 282.619 66.98C282.619 68.0067 283.133 68.8467 284.159 69.5C285.233 70.1067 286.983 70.5267 289.409 70.76L292.209 71.04C294.589 71.2733 296.456 71.81 297.809 72.65C299.163 73.49 300.119 74.4933 300.679 75.66C301.239 76.78 301.519 77.97 301.519 79.23C301.519 80.49 301.193 81.75 300.539 83.01C299.886 84.2233 298.743 85.25 297.109 86.09C295.523 86.8833 293.236 87.28 290.249 87.28C288.523 87.28 286.749 87.1167 284.929 86.79C283.109 86.4167 281.383 85.88 279.749 85.18C279.049 84.8533 278.699 84.2933 278.699 83.5C278.699 83.08 278.886 82.7067 279.259 82.38C279.633 82.0067 280.053 81.82 280.519 81.82C280.613 81.82 280.776 81.8667 281.009 81.96C281.243 82.0533 281.663 82.2167 282.269 82.45C283.156 82.7767 284.323 83.08 285.769 83.36C287.216 83.64 288.709 83.78 290.249 83.78C292.769 83.78 294.683 83.36 295.989 82.52C297.343 81.6333 298.019 80.5367 298.019 79.23C298.019 78.0167 297.553 76.99 296.619 76.15C295.686 75.2633 294.123 74.7267 291.929 74.54L289.129 74.26C286.376 73.98 284.276 73.4667 282.829 72.72C281.383 71.9267 280.403 71.0167 279.889 69.99C279.376 68.9633 279.119 67.9367 279.119 66.91C279.119 65.7433 279.423 64.6 280.029 63.48C280.683 62.3133 281.779 61.3333 283.319 60.54C284.906 59.7467 287.076 59.35 289.829 59.35C291.416 59.35 292.886 59.4667 294.239 59.7C295.639 59.8867 296.876 60.1433 297.949 60.47C298.323 60.5167 298.626 60.7267 298.859 61.1C299.093 61.4267 299.209 61.7767 299.209 62.15C299.209 62.6633 299.023 63.0833 298.649 63.41C298.323 63.7367 297.926 63.9 297.459 63.9C297.179 63.9 296.689 63.8067 295.989 63.62ZM313.503 45.21C314.296 45.21 314.973 45.5367 315.533 46.19C316.093 46.7967 316.373 47.6367 316.373 48.71C316.373 49.7833 316.093 50.6 315.533 51.16C314.973 51.72 314.32 52 313.573 52C312.733 52 312.01 51.72 311.403 51.16C310.843 50.5533 310.563 49.7367 310.563 48.71C310.563 47.6367 310.843 46.7967 311.403 46.19C311.963 45.5367 312.663 45.21 313.503 45.21ZM311.823 61.31C311.823 60.7967 311.986 60.3767 312.313 60.05C312.686 59.7233 313.106 59.56 313.573 59.56C314.086 59.56 314.506 59.7233 314.833 60.05C315.16 60.3767 315.323 60.7967 315.323 61.31V85.25C315.323 85.7167 315.16 86.1367 314.833 86.51C314.506 86.8367 314.086 87 313.573 87C313.106 87 312.686 86.8367 312.313 86.51C311.986 86.1367 311.823 85.7167 311.823 85.25V61.31ZM333.063 99.67C332.596 99.67 332.176 99.4833 331.803 99.11C331.476 98.7833 331.313 98.3867 331.313 97.92C331.313 97.4533 331.476 97.0333 331.803 96.66C332.176 96.3333 332.596 96.17 333.063 96.17C338.056 96.17 341.696 94.8633 343.983 92.25C346.316 89.6833 347.483 86.2767 347.483 82.03V81.75C345.943 83.1967 344.263 84.2933 342.443 85.04C340.623 85.7867 338.756 86.16 336.843 86.16C334.929 86.16 333.063 85.74 331.243 84.9C329.469 84.06 327.999 82.73 326.833 80.91C325.713 79.09 325.153 76.7567 325.153 73.91C325.153 70.97 325.829 68.4267 327.183 66.28C328.536 64.1333 330.286 62.4767 332.433 61.31C334.626 60.1433 336.889 59.56 339.223 59.56C340.856 59.56 342.303 59.7 343.563 59.98C344.869 60.26 346.176 60.6567 347.483 61.17C347.576 60.6567 347.786 60.26 348.113 59.98C348.439 59.7 348.813 59.56 349.233 59.56C349.746 59.56 350.166 59.7233 350.493 60.05C350.819 60.3767 350.983 60.7967 350.983 61.31V82.03C350.983 87.35 349.559 91.62 346.713 94.84C343.866 98.06 339.316 99.67 333.063 99.67ZM336.843 82.66C338.849 82.66 340.786 82.1467 342.653 81.12C344.519 80.0467 346.129 78.5067 347.483 76.5V65.02C346.036 64.3667 344.706 63.8767 343.493 63.55C342.279 63.2233 340.856 63.06 339.223 63.06C337.449 63.06 335.746 63.5033 334.113 64.39C332.479 65.2767 331.149 66.5367 330.123 68.17C329.143 69.8033 328.653 71.7167 328.653 73.91C328.653 75.9167 329.049 77.5733 329.843 78.88C330.636 80.1867 331.663 81.1433 332.923 81.75C334.183 82.3567 335.489 82.66 336.843 82.66ZM384.718 87C384.251 87 383.831 86.8367 383.458 86.51C383.131 86.1367 382.968 85.7167 382.968 85.25V71.25C382.968 68.3567 382.408 66.28 381.288 65.02C380.214 63.7133 378.744 63.06 376.878 63.06C374.918 63.06 373.051 63.5967 371.278 64.67C369.504 65.6967 367.871 66.9567 366.378 68.45V85.25C366.378 85.7167 366.214 86.1367 365.888 86.51C365.561 86.8367 365.141 87 364.628 87C364.161 87 363.741 86.8367 363.368 86.51C363.041 86.1367 362.878 85.7167 362.878 85.25V61.31C362.878 60.7967 363.041 60.3767 363.368 60.05C363.741 59.7233 364.161 59.56 364.628 59.56C365.141 59.56 365.561 59.7233 365.888 60.05C366.214 60.3767 366.378 60.7967 366.378 61.31V63.83C367.964 62.57 369.621 61.5433 371.348 60.75C373.074 59.9567 374.918 59.56 376.878 59.56C378.651 59.56 380.261 59.91 381.708 60.61C383.154 61.31 384.298 62.5233 385.138 64.25C386.024 65.93 386.468 68.2633 386.468 71.25V85.25C386.468 85.7167 386.304 86.1367 385.978 86.51C385.651 86.8367 385.231 87 384.718 87ZM413.773 63.62C413.306 63.48 412.489 63.3167 411.323 63.13C410.203 62.9433 408.966 62.85 407.613 62.85C405.326 62.85 403.553 63.2467 402.293 64.04C401.033 64.8333 400.403 65.8133 400.403 66.98C400.403 68.0067 400.916 68.8467 401.943 69.5C403.016 70.1067 404.766 70.5267 407.193 70.76L409.993 71.04C412.373 71.2733 414.239 71.81 415.593 72.65C416.946 73.49 417.903 74.4933 418.463 75.66C419.023 76.78 419.303 77.97 419.303 79.23C419.303 80.49 418.976 81.75 418.323 83.01C417.669 84.2233 416.526 85.25 414.893 86.09C413.306 86.8833 411.019 87.28 408.033 87.28C406.306 87.28 404.533 87.1167 402.713 86.79C400.893 86.4167 399.166 85.88 397.533 85.18C396.833 84.8533 396.483 84.2933 396.483 83.5C396.483 83.08 396.669 82.7067 397.043 82.38C397.416 82.0067 397.836 81.82 398.303 81.82C398.396 81.82 398.559 81.8667 398.793 81.96C399.026 82.0533 399.446 82.2167 400.053 82.45C400.939 82.7767 402.106 83.08 403.553 83.36C404.999 83.64 406.493 83.78 408.033 83.78C410.553 83.78 412.466 83.36 413.773 82.52C415.126 81.6333 415.803 80.5367 415.803 79.23C415.803 78.0167 415.336 76.99 414.403 76.15C413.469 75.2633 411.906 74.7267 409.713 74.54L406.913 74.26C404.159 73.98 402.059 73.4667 400.613 72.72C399.166 71.9267 398.186 71.0167 397.673 69.99C397.159 68.9633 396.903 67.9367 396.903 66.91C396.903 65.7433 397.206 64.6 397.813 63.48C398.466 62.3133 399.563 61.3333 401.103 60.54C402.689 59.7467 404.859 59.35 407.613 59.35C409.199 59.35 410.669 59.4667 412.023 59.7C413.423 59.8867 414.659 60.1433 415.733 60.47C416.106 60.5167 416.409 60.7267 416.643 61.1C416.876 61.4267 416.993 61.7767 416.993 62.15C416.993 62.6633 416.806 63.0833 416.433 63.41C416.106 63.7367 415.709 63.9 415.243 63.9C414.963 63.9 414.473 63.8067 413.773 63.62Z" fill="white"/>
<path d="M74 44L95.6506 86.75H52.3494L74 44Z" fill="white"/>
<line x1="49" y1="91" x2="424" y2="91" stroke="white" stroke-width="2"/>
</g>
<defs>
<filter id="filter0_d_9_14" x="0" y="0" width="478" height="132" filterUnits="userSpaceOnUse" color-interpolation-filters="sRGB">
<feFlood flood-opacity="0" result="BackgroundImageFix"/>
<feColorMatrix in="SourceAlpha" type="matrix" values="0 0 0 0 0 0 0 0 0 0 0 0 0 0 0 0 0 0 127 0" result="hardAlpha"/>
<feMorphology radius="13" operator="dilate" in="SourceAlpha" result="effect1_dropShadow_9_14"/>
<feOffset/>
<feGaussianBlur stdDeviation="5.5"/>
<feComposite in2="hardAlpha" operator="out"/>
<feColorMatrix type="matrix" values="0 0 0 0 0 0 0 0 0 0 0 0 0 0 0 0 0 0 0.25 0"/>
<feBlend mode="normal" in2="BackgroundImageFix" result="effect1_dropShadow_9_14"/>
<feBlend mode="normal" in="SourceGraphic" in2="effect1_dropShadow_9_14" result="shape"/>
</filter>
</defs>
</svg>
